<?xml version="1.0" encoding="iso-8859-1"?>
<!-- Generator: Adobe Illustrator 19.0.0, SVG Export Plug-In . SVG Version: 6.00 Build 0)  -->
<svg version="1.1" id="Layer_1" xmlns="http://www.w3.org/2000/svg" xmlns:xlink="http://www.w3.org/1999/xlink" x="0px" y="0px"
	 viewBox="0 0 512 512" style="enable-background:new 0 0 512 512;" xml:space="preserve">
<path style="fill:#B3F4FF;" d="M448.222,446.362v38.139c0,15.157-12.332,27.499-27.489,27.499H91.491
	c-15.167,0-27.499-12.342-27.499-27.499v-38.139c0-45.652,37.147-82.799,82.799-82.799h218.633
	C411.076,363.563,448.222,400.71,448.222,446.362z"/>
<path style="fill:#53DCFF;" d="M448.222,446.362v38.139c0,15.157-12.332,27.499-27.489,27.499H257.019V363.563h108.405
	C411.076,363.563,448.222,400.71,448.222,446.362z"/>
<path style="fill:#FFEFBC;" d="M409.813,202.163c0,51.192-15.989,108.445-42.757,153.155
	c-30.204,50.441-69.244,78.391-110.038,78.802c-0.301,0.01-0.611,0.01-0.912,0.01c-41.114,0-80.525-27.99-110.949-78.812
	c-26.768-44.71-42.747-101.963-42.747-153.155v-0.13c0.03-51.002,15.358-90.703,45.562-118.022
	c26.728-24.173,64.115-36.956,108.134-36.956c0.301,0,0.611,0,0.912,0.01c27.72,0.1,52.795,5.3,74.203,15.247
	c0.04,0.02,0.09,0.04,0.13,0.06c12.232,5.68,23.262,12.913,32.899,21.639c29.283,26.478,44.58,64.596,45.522,113.354
	C409.793,198.958,409.813,200.55,409.813,202.163z"/>
<path style="fill:#F2E3B2;" d="M409.813,202.163c0,51.192-15.989,108.445-42.757,153.155
	c-30.204,50.441-69.244,78.391-110.038,78.802V47.065c27.72,0.1,52.795,5.3,74.203,15.247c0.04,0.02,0.09,0.04,0.13,0.06
	c12.232,5.68,23.262,12.913,32.899,21.639c29.283,26.478,44.58,64.596,45.522,113.354
	C409.793,198.958,409.813,200.55,409.813,202.163z"/>
<path style="fill:#5C546A;" d="M219.13,261.849h-43.587c-8.299,0-15.027-6.728-15.027-15.027s6.728-15.027,15.027-15.027h43.587
	c8.299,0,15.027,6.728,15.027,15.027S227.429,261.849,219.13,261.849z"/>
<path style="fill:#575065;" d="M336.81,261.849h-43.587c-8.299,0-15.027-6.728-15.027-15.027s6.728-15.027,15.027-15.027h43.587
	c8.299,0,15.027,6.728,15.027,15.027S345.109,261.849,336.81,261.849z"/>
<path style="fill:#5C546A;" d="M298.954,357.703c-11.05,6.732-25.796,11.721-41.935,11.811h-0.461
	c-13.324,0-27.58-3.346-41.485-11.811c-7.093-4.318-9.337-13.554-5.029-20.647c4.318-7.093,13.564-9.337,20.657-5.019
	c8.826,5.37,17.872,7.453,26.317,7.393c10.128-0.05,19.385-3.176,26.317-7.403c7.083-4.308,16.329-2.064,20.647,5.029
	C308.301,344.148,306.047,353.385,298.954,357.703z"/>
<path style="fill:#575065;" d="M298.954,357.703c-11.05,6.732-25.796,11.721-41.935,11.811V339.43
	c10.128-0.05,19.385-3.176,26.317-7.403c7.083-4.308,16.329-2.064,20.647,5.029C308.301,344.148,306.047,353.385,298.954,357.703z"
	/>
<path style="fill:#7E5C62;" d="M420.499,168h0.01H420.499z M419.827,167.98c-0.045,0-0.079,0-0.102,0
	c0.21,0,0.421,0.004,0.629,0.013C420.115,167.981,419.939,167.98,419.827,167.98z M364.252,84.011
	c-9.637-8.726-20.667-15.959-32.899-21.639c-10.579,8.115-17.311,16.299-21.539,23.572c-5.56,9.567-6.802,17.552-6.802,21.709
	c0,22.5,7.453,43.869,20.998,60.148c14.015,16.85,32.949,26.498,53.336,27.189c0.361,0.03,1.172,0.08,2.294,0.16
	c3.126,0.23,8.706,0.641,14.165,1.042c7.173,0.531,12.292,0.902,15.969,1.172C408.832,148.607,393.534,110.489,364.252,84.011z"/>
<path style="fill:#9F6459;" d="M334.839,90.162c0,2.855-0.13,5.68-0.381,8.495c-2.705,30.485-19.996,58.585-49.359,79.874
	c-30.625,22.2-71.088,34.422-113.945,34.422c-13.094,0-26.017-1.142-38.569-3.406c-5.881-1.052-11.681-2.354-17.381-3.897
	c-0.17-0.05-1.923-0.541-12.793-3.617c0.03-51.002,15.358-90.703,45.562-118.022c26.728-24.173,64.115-36.956,108.134-36.956
	c28.08,0,53.476,5.199,75.115,15.257c0.321,1.643,0.651,3.366,0.992,5.149l0.912,4.759C334.268,78.12,334.839,84.161,334.839,90.162
	z"/>
<path style="fill:#5C546A;" d="M446.149,189.39c0,8.305-6.732,15.027-15.027,15.027c-8.305,0-15.027-6.722-15.027-15.027
	c0-87.768-71.328-159.186-159.076-159.336h-0.27c-87.858,0-159.336,71.478-159.336,159.336c0,8.305-6.722,15.027-15.027,15.027
	c-8.295,0-15.027-6.722-15.027-15.027C67.358,84.963,152.321,0,256.748,0h0.27C361.336,0.15,446.149,85.053,446.149,189.39z"/>
<path style="fill:#575065;" d="M446.149,189.39c0,8.305-6.732,15.027-15.027,15.027c-8.305,0-15.027-6.722-15.027-15.027
	c0-87.768-71.328-159.186-159.076-159.336V0C361.336,0.15,446.149,85.053,446.149,189.39z"/>
<path style="fill:#FF4F19;" d="M94.034,176.526h-25.65c-15.159,0-27.492,12.334-27.492,27.492v88.506
	c0,15.159,12.333,27.491,27.492,27.491h25.65c15.159,0,27.492-12.333,27.492-27.491v-88.506
	C121.526,188.86,109.193,176.526,94.034,176.526z"/>
<path style="fill:#E9001E;" d="M443.616,175.077h-25.65c-15.159,0-27.492,12.333-27.492,27.491v88.506
	c0,15.159,12.333,27.492,27.492,27.492h25.65c15.159,0,27.492-12.334,27.492-27.492v-88.506
	C471.109,187.409,458.775,175.077,443.616,175.077z"/>
<g>
</g>
<g>
</g>
<g>
</g>
<g>
</g>
<g>
</g>
<g>
</g>
<g>
</g>
<g>
</g>
<g>
</g>
<g>
</g>
<g>
</g>
<g>
</g>
<g>
</g>
<g>
</g>
<g>
</g>
</svg>
